<svg width="20" height="15" viewBox="0 0 20 15" fill="none" xmlns="http://www.w3.org/2000/svg">
  <rect width="20" height="15" fill="#1F3F95"/>
  <rect width="10" height="7.5" fill="#1F3F95"/>
  <path d="M0 0L10 7.5M10 0L0 7.5" stroke="#FFFFFF" stroke-width="1.8"/>
  <path d="M0 0L10 7.5M10 0L0 7.5" stroke="#CF142B" stroke-width="0.8"/>
  <path d="M5 0V7.5M0 3.75H10" stroke="#FFFFFF" stroke-width="3"/>
  <path d="M5 0V7.5M0 3.75H10" stroke="#CF142B" stroke-width="1.6"/>
  <g fill="#CF142B" stroke="#FFFFFF" stroke-width="0.35">
    <path d="M14.7 3.1L15.03 4.02L16.02 4.05L15.24 4.67L15.52 5.62L14.7 5.08L13.88 5.62L14.16 4.67L13.38 4.05L14.37 4.02L14.7 3.1Z"/>
    <path d="M16.8 5.5L17.05 6.18L17.78 6.2L17.2 6.66L17.41 7.36L16.8 6.96L16.19 7.36L16.4 6.66L15.82 6.2L16.55 6.18L16.8 5.5Z"/>
    <path d="M13.2 7.2L13.45 7.88L14.18 7.9L13.6 8.36L13.81 9.06L13.2 8.66L12.59 9.06L12.8 8.36L12.22 7.9L12.95 7.88L13.2 7.2Z"/>
    <path d="M16.2 9.2L16.53 10.12L17.52 10.15L16.74 10.77L17.02 11.72L16.2 11.18L15.38 11.72L15.66 10.77L14.88 10.15L15.87 10.12L16.2 9.2Z"/>
  </g>
</svg>
